<?xml version="1.0" encoding="UTF-8" standalone="no"?><!DOCTYPE svg PUBLIC "-//W3C//DTD SVG 1.1//EN" "http://www.w3.org/Graphics/SVG/1.1/DTD/svg11.dtd"><svg width="100%" height="100%" viewBox="0 0 32 32" version="1.1" xmlns="http://www.w3.org/2000/svg" xmlns:xlink="http://www.w3.org/1999/xlink" xml:space="preserve" xmlns:serif="http://www.serif.com/" style="fill-rule:evenodd;clip-rule:evenodd;stroke-linejoin:round;stroke-miterlimit:2;"><rect id="YUE-Logo---Favicon---32-x-32px" serif:id="YUE Logo - Favicon - 32 x 32px" x="-0" y="0" width="32" height="32" style="fill:none;"/><clipPath id="_clip1"><rect x="-0" y="0" width="32" height="32"/></clipPath><g clip-path="url(#_clip1)"><path d="M32,8c0,-4.415 -3.585,-8 -8,-8l-16,0c-4.415,0 -8,3.585 -8,8l-0,16c-0,4.415 3.585,8 8,8l16,0c4.415,0 8,-3.585 8,-8l0,-16Z" style="fill:#fff;"/><clipPath id="_clip2"><path d="M32,8c0,-4.415 -3.585,-8 -8,-8l-16,0c-4.415,0 -8,3.585 -8,8l-0,16c-0,4.415 3.585,8 8,8l16,0c4.415,0 8,-3.585 8,-8l0,-16Z"/></clipPath><g clip-path="url(#_clip2)"><rect x="-33.952" y="0" width="99.027" height="32" style="fill:none;"/><clipPath id="_clip3"><rect x="-33.952" y="0" width="99.027" height="32"/></clipPath><g clip-path="url(#_clip3)"><path d="M43.644,-17.053l-23.879,-10.007l-31.895,76.113l23.879,10.007l31.895,-76.113Z" style="fill:#ffa0ac;"/><path d="M62.291,-7.047l-23.879,-10.006l-31.895,76.113l23.879,10.006l31.895,-76.113Zm-7.889,5.714l-1.476,5.276l3.83,-3.917l-2.354,-1.359Z" style="fill:#0a081f;"/><path d="M24.757,-27.06l-23.879,-10.006l-31.895,76.113l23.879,10.006l31.895,-76.113Zm-48.587,57.664l2.697,-6.416l-6.558,8.641l2.354,1.359l0.873,-2.078l1.817,1.05l1.477,-5.276l-2.66,2.72Z" style="fill:#003384;"/><path d="M3.776,41.652l-4.75,-25.652l-21.998,14.023l26.748,11.629Z" style="fill:#ffa0ac;"/><path d="M14.652,-2.51l-2.876,10.515l6.044,-9.072l-3.168,-1.443Z" style="fill:#003384;"/><path d="M19.592,34.238l4.166,-11.978l-7.083,10.519l2.917,1.459Z" style="fill:#ffa0ac;"/></g></g></g></svg>