<?xml version="1.0" encoding="UTF-8" standalone="no"?><!DOCTYPE svg PUBLIC "-//W3C//DTD SVG 1.1//EN" "http://www.w3.org/Graphics/SVG/1.1/DTD/svg11.dtd"><svg width="100%" height="100%" viewBox="0 0 750 247" version="1.1" xmlns="http://www.w3.org/2000/svg" xmlnsXlink="http://www.w3.org/1999/xlink" xmlSpace="preserve" xmlnsSerif="http://www.serif.com/" style="fill-rule:evenodd;clip-rule:evenodd;stroke-linejoin:round;stroke-miterlimit:2;"><rect id="YUE-Logo---Full---Color-SVG" serifId="YUE Logo - Full - Color SVG" x="0" y="0.991" width="750" height="245.267" style="fill:none;"/><clipPath id="_clip1"><rect x="0" y="0.991" width="750" height="245.267"/></clipPath><g clip-path="url(#_clip1)"><g><rect x="-6" y="0.991" width="759" height="245.267" style="fill:none;"/><clipPath id="_clip2"><rect x="-6" y="0.991" width="759" height="245.267"/></clipPath><g clip-path="url(#_clip2)"><path d="M771.766,-53.017l-183.023,-76.696l-244.463,583.372l183.023,76.696l244.463,-583.372Zm-60.467,43.794l-11.317,40.435l29.359,-30.018l-18.042,-10.417Z" style="fill:#0a081f;"/><path d="M588.743,-129.713l-183.023,-76.696l-244.463,583.371l183.023,76.697l244.463,-583.372Z" style="fill:#ffa0ac;"/><path d="M405.72,-206.409l-183.023,-76.696l-244.463,583.371l183.023,76.696l244.463,-583.371Zm-372.404,441.968l20.674,-49.175l-50.264,66.226l18.042,10.417l6.694,-15.922l13.928,8.041l11.316,-40.435l-20.39,20.848Z" style="fill:#003384;"/><path d="M194.038,281.484l52.724,-157.859l-79.473,146.231l26.749,11.628Z" style="fill:#ffa0ac;"/><path d="M330.93,-17.036l-24.709,79.384l43.668,-70.749l-18.959,-8.635Z" style="fill:#003384;"/><path d="M446.357,264.34l30.064,-92.736l-56.151,79.693l26.087,13.043Z" style="fill:#ffa0ac;"/></g><path d="M173.713,147.174l-18.442,54.833l-41.673,0l18.558,-55.491l-18.424,-90.804l46.279,-0l7.232,49.789l41.46,-49.789l46.499,-0l-81.489,91.462Z" style="fill:#fff;fill-rule:nonzero;"/><path d="M346.467,205.736c-8.92,0 -16.627,-1.279 -23.121,-3.838c-6.495,-2.559 -11.559,-6.178 -15.194,-10.857c-3.635,-4.679 -5.786,-10.309 -6.453,-16.889c-0.668,-6.58 0.365,-13.891 3.099,-21.933l32.371,-96.507l41.673,-0l-30.113,89.927c-1.634,5.117 -1.382,9.285 0.756,12.502c2.138,3.217 5.912,4.825 11.322,4.825c5.411,-0 10.337,-1.608 14.779,-4.825c4.442,-3.217 7.48,-7.385 9.113,-12.502l30.114,-89.927l41.673,-0l-32.37,96.507c-2.734,8.042 -6.619,15.353 -11.654,21.933c-5.035,6.58 -10.963,12.21 -17.783,16.889c-6.82,4.679 -14.331,8.298 -22.532,10.857c-8.201,2.559 -16.761,3.838 -25.68,3.838Z" style="fill:#fff;fill-rule:nonzero;"/><path d="M606.663,94.095l-5.571,16.67l48.253,-0l-12.084,36.19l-48.253,-0l-5.571,16.669l56.588,-0l-16.2,38.383l-94.971,0l49.045,-146.295l94.972,-0l-12.91,38.383l-53.298,0Z" style="fill:#fff;fill-rule:nonzero;"/></g></g></svg>